<svg xmlns="http://www.w3.org/2000/svg" xmlns:xlink="http://www.w3.org/1999/xlink" viewBox="0 0 328 200" width="328" height="200" preserveAspectRatio="xMidYMid meet" style="width: 100%; height: 100%; transform: translate3d(0px, 0px, 0px); content-visibility: visible;"><defs><clipPath id="__lottie_element_2"><rect width="328" height="200" x="0" y="0"></rect></clipPath><symbol id="__lottie_element_100"><g><g style="display: none;" transform="matrix(1,0,0,1,25,32)" opacity="1"><path fill="rgb(0,255,0)" fill-opacity="1" d=" M0,136 C0,136 0,0 0,0 C0,0 239,0 239,0 C239,0 239,136 239,136 C239,136 0,136 0,136 C0,136 0,136 0,136z"></path></g></g></symbol><symbol id="__lottie_element_107"><g><g style="display: none;" transform="matrix(1,0,0,1,25,32)" opacity="1"><path fill="rgb(0,255,0)" fill-opacity="1" d=" M0,136 C0,136 0,0 0,0 C0,0 239,0 239,0 C239,0 239,136 239,136 C239,136 0,136 0,136 C0,136 0,136 0,136z"></path></g></g></symbol><symbol id="__lottie_element_114"><g><g style="display: none;" transform="matrix(1,0,0,1,25,32)" opacity="1"><path fill="rgb(0,255,0)" fill-opacity="1" d=" M0,136 C0,136 0,0 0,0 C0,0 239,0 239,0 C239,0 239,136 239,136 C239,136 0,136 0,136 C0,136 0,136 0,136z"></path></g></g></symbol><symbol id="__lottie_element_121"><g><g style="display: none;" transform="matrix(1,0,0,1,25,32)" opacity="1"><path fill="rgb(0,255,0)" fill-opacity="1" d=" M0,136 C0,136 0,0 0,0 C0,0 239,0 239,0 C239,0 239,136 239,136 C239,136 0,136 0,136 C0,136 0,136 0,136z"></path></g></g></symbol><symbol id="__lottie_element_128"><g><g style="display: none;" transform="matrix(1,0,0,1,25,32)" opacity="1"><path fill="rgb(0,255,0)" fill-opacity="1" d=" M0,136 C0,136 0,0 0,0 C0,0 239,0 239,0 C239,0 239,136 239,136 C239,136 0,136 0,136 C0,136 0,136 0,136z"></path></g></g></symbol><symbol id="__lottie_element_135"><g><g style="display: none;" transform="matrix(1,0,0,1,25,32)" opacity="1"><path fill="rgb(0,255,0)" fill-opacity="1" d=" M0,136 C0,136 0,0 0,0 C0,0 239,0 239,0 C239,0 239,136 239,136 C239,136 0,136 0,136 C0,136 0,136 0,136z"></path></g></g></symbol><symbol id="__lottie_element_142"><g><g style="display: none;" transform="matrix(1,0,0,1,25,32)" opacity="1"><path fill="rgb(0,255,0)" fill-opacity="1" d=" M0,136 C0,136 0,0 0,0 C0,0 239,0 239,0 C239,0 239,136 239,136 C239,136 0,136 0,136 C0,136 0,136 0,136z"></path></g></g></symbol><symbol id="__lottie_element_149"><g><g style="display: none;" transform="matrix(1,0,0,1,25,32)" opacity="1"><path fill="rgb(0,255,0)" fill-opacity="1" d=" M0,136 C0,136 0,0 0,0 C0,0 239,0 239,0 C239,0 239,136 239,136 C239,136 0,136 0,136 C0,136 0,136 0,136z"></path></g></g></symbol><symbol id="__lottie_element_156"><g><g style="display: none;" transform="matrix(1,0,0,1,25,32)" opacity="1"><path fill="rgb(0,255,0)" fill-opacity="1" d=" M0,136 C0,136 0,0 0,0 C0,0 239,0 239,0 C239,0 239,136 239,136 C239,136 0,136 0,136 C0,136 0,136 0,136z"></path></g></g></symbol><symbol id="__lottie_element_164"><g><g style="display: none;" transform="matrix(1,0,0,1,25,32)" opacity="1"><path fill="rgb(0,255,0)" fill-opacity="1" d=" M0,136 C0,136 0,0 0,0 C0,0 239,0 239,0 C239,0 239,136 239,136 C239,136 0,136 0,136 C0,136 0,136 0,136z"></path></g></g></symbol><symbol id="__lottie_element_171"><g><g style="display: none;" transform="matrix(1,0,0,1,25,32)" opacity="1"><path fill="rgb(0,255,0)" fill-opacity="1" d=" M0,136 C0,136 0,0 0,0 C0,0 239,0 239,0 C239,0 239,136 239,136 C239,136 0,136 0,136 C0,136 0,136 0,136z"></path></g></g></symbol><symbol id="__lottie_element_178"><g><g style="display: none;" transform="matrix(1,0,0,1,25,32)" opacity="1"><path fill="rgb(0,255,0)" fill-opacity="1" d=" M0,136 C0,136 0,0 0,0 C0,0 239,0 239,0 C239,0 239,136 239,136 C239,136 0,136 0,136 C0,136 0,136 0,136z"></path></g></g></symbol><symbol id="__lottie_element_186"><g><g style="display: none;" transform="matrix(1,0,0,1,25,32)" opacity="1"><path fill="rgb(0,255,0)" fill-opacity="1" d=" M0,136 C0,136 0,0 0,0 C0,0 239,0 239,0 C239,0 239,136 239,136 C239,136 0,136 0,136 C0,136 0,136 0,136z"></path></g></g></symbol><symbol id="__lottie_element_193"><g><g style="display: none;" transform="matrix(1,0,0,1,25,32)" opacity="1"><path fill="rgb(0,255,0)" fill-opacity="1" d=" M0,136 C0,136 0,0 0,0 C0,0 239,0 239,0 C239,0 239,136 239,136 C239,136 0,136 0,136 C0,136 0,136 0,136z"></path></g></g></symbol><symbol id="__lottie_element_200"><g><g style="display: none;" transform="matrix(1,0,0,1,25,32)" opacity="1"><path fill="rgb(0,255,0)" fill-opacity="1" d=" M0,136 C0,136 0,0 0,0 C0,0 239,0 239,0 C239,0 239,136 239,136 C239,136 0,136 0,136 C0,136 0,136 0,136z"></path></g></g></symbol><symbol id="__lottie_element_207"><g><g style="display: none;" transform="matrix(1,0,0,1,25,32)" opacity="1"><path fill="rgb(0,255,0)" fill-opacity="1" d=" M0,136 C0,136 0,0 0,0 C0,0 239,0 239,0 C239,0 239,136 239,136 C239,136 0,136 0,136 C0,136 0,136 0,136z"></path></g></g></symbol><symbol id="__lottie_element_215"><g><g style="display: none;" transform="matrix(1,0,0,1,25,32)" opacity="1"><path fill="rgb(0,255,0)" fill-opacity="1" d=" M0,136 C0,136 0,0 0,0 C0,0 239,0 239,0 C239,0 239,136 239,136 C239,136 0,136 0,136 C0,136 0,136 0,136z"></path></g></g></symbol><symbol id="__lottie_element_222"><g><g style="display: none;" transform="matrix(1,0,0,1,25,32)" opacity="1"><path fill="rgb(0,255,0)" fill-opacity="1" d=" M0,136 C0,136 0,0 0,0 C0,0 239,0 239,0 C239,0 239,136 239,136 C239,136 0,136 0,136 C0,136 0,136 0,136z"></path></g></g></symbol><symbol id="__lottie_element_229"><g><g style="display: none;" transform="matrix(1,0,0,1,25,32)" opacity="1"><path fill="rgb(0,255,0)" fill-opacity="1" d=" M0,136 C0,136 0,0 0,0 C0,0 239,0 239,0 C239,0 239,136 239,136 C239,136 0,136 0,136 C0,136 0,136 0,136z"></path></g></g></symbol><symbol id="__lottie_element_236"><g><g style="display: none;" transform="matrix(1,0,0,1,25,32)" opacity="1"><path fill="rgb(0,255,0)" fill-opacity="1" d=" M0,136 C0,136 0,0 0,0 C0,0 239,0 239,0 C239,0 239,136 239,136 C239,136 0,136 0,136 C0,136 0,136 0,136z"></path></g></g></symbol><symbol id="__lottie_element_244"><g><g style="display: none;" transform="matrix(1,0,0,1,25,32)" opacity="1"><path fill="rgb(0,255,0)" fill-opacity="1" d=" M0,136 C0,136 0,0 0,0 C0,0 239,0 239,0 C239,0 239,136 239,136 C239,136 0,136 0,136 C0,136 0,136 0,136z"></path></g></g></symbol><symbol id="__lottie_element_252"><g><g style="display: none;" transform="matrix(1,0,0,1,25,32)" opacity="1"><path fill="rgb(0,255,0)" fill-opacity="1" d=" M0,136 C0,136 0,0 0,0 C0,0 239,0 239,0 C239,0 239,136 239,136 C239,136 0,136 0,136 C0,136 0,136 0,136z"></path></g></g></symbol><symbol id="__lottie_element_259"><g><g style="display: none;" transform="matrix(1,0,0,1,25,32)" opacity="1"><path fill="rgb(0,255,0)" fill-opacity="1" d=" M0,136 C0,136 0,0 0,0 C0,0 239,0 239,0 C239,0 239,136 239,136 C239,136 0,136 0,136 C0,136 0,136 0,136z"></path></g></g></symbol><symbol id="__lottie_element_266"><g><g style="display: none;" transform="matrix(1,0,0,1,25,32)" opacity="1"><path fill="rgb(0,255,0)" fill-opacity="1" d=" M0,136 C0,136 0,0 0,0 C0,0 239,0 239,0 C239,0 239,136 239,136 C239,136 0,136 0,136 C0,136 0,136 0,136z"></path></g></g></symbol><symbol id="__lottie_element_274"><g><g style="display: none;" transform="matrix(1,0,0,1,25,32)" opacity="1"><path fill="rgb(0,255,0)" fill-opacity="1" d=" M0,136 C0,136 0,0 0,0 C0,0 239,0 239,0 C239,0 239,136 239,136 C239,136 0,136 0,136 C0,136 0,136 0,136z"></path></g></g></symbol><symbol id="__lottie_element_281"><g><g style="display: none;" transform="matrix(1,0,0,1,25,32)" opacity="1"><path fill="rgb(0,255,0)" fill-opacity="1" d=" M0,136 C0,136 0,0 0,0 C0,0 239,0 239,0 C239,0 239,136 239,136 C239,136 0,136 0,136 C0,136 0,136 0,136z"></path></g></g></symbol><symbol id="__lottie_element_288"><g><g style="display: none;" transform="matrix(1,0,0,1,25,32)" opacity="1"><path fill="rgb(0,255,0)" fill-opacity="1" d=" M0,136 C0,136 0,0 0,0 C0,0 239,0 239,0 C239,0 239,136 239,136 C239,136 0,136 0,136 C0,136 0,136 0,136z"></path></g></g></symbol><symbol id="__lottie_element_295"><g><g style="display: none;" transform="matrix(1,0,0,1,25,32)" opacity="1"><path fill="rgb(0,255,0)" fill-opacity="1" d=" M0,136 C0,136 0,0 0,0 C0,0 239,0 239,0 C239,0 239,136 239,136 C239,136 0,136 0,136 C0,136 0,136 0,136z"></path></g></g></symbol><symbol id="__lottie_element_302"><g><g style="display: none;" transform="matrix(1,0,0,1,25,32)" opacity="1"><path fill="rgb(0,255,0)" fill-opacity="1" d=" M0,136 C0,136 0,0 0,0 C0,0 239,0 239,0 C239,0 239,136 239,136 C239,136 0,136 0,136 C0,136 0,136 0,136z"></path></g></g></symbol><symbol id="__lottie_element_309"><g><g style="display: none;" transform="matrix(1,0,0,1,25,32)" opacity="1"><path fill="rgb(0,255,0)" fill-opacity="1" d=" M0,136 C0,136 0,0 0,0 C0,0 239,0 239,0 C239,0 239,136 239,136 C239,136 0,136 0,136 C0,136 0,136 0,136z"></path></g></g></symbol><symbol id="__lottie_element_316"><g><g style="display: none;" transform="matrix(1,0,0,1,25,32)" opacity="1"><path fill="rgb(0,255,0)" fill-opacity="1" d=" M0,136 C0,136 0,0 0,0 C0,0 239,0 239,0 C239,0 239,136 239,136 C239,136 0,136 0,136 C0,136 0,136 0,136z"></path></g></g></symbol><symbol id="__lottie_element_323"><g><g style="display: none;" transform="matrix(1,0,0,1,25,32)" opacity="1"><path fill="rgb(0,255,0)" fill-opacity="1" d=" M0,136 C0,136 0,0 0,0 C0,0 239,0 239,0 C239,0 239,136 239,136 C239,136 0,136 0,136 C0,136 0,136 0,136z"></path></g></g></symbol><symbol id="__lottie_element_330"><g><g style="display: none;" transform="matrix(1,0,0,1,25,32)" opacity="1"><path fill="rgb(0,255,0)" fill-opacity="1" d=" M0,136 C0,136 0,0 0,0 C0,0 239,0 239,0 C239,0 239,136 239,136 C239,136 0,136 0,136 C0,136 0,136 0,136z"></path></g></g></symbol><mask id="__lottie_element_330_1" mask-type="alpha"><use xlink:href="#__lottie_element_330"></use></mask><mask id="__lottie_element_323_1" mask-type="alpha"><use xlink:href="#__lottie_element_323"></use></mask><mask id="__lottie_element_316_1" mask-type="alpha"><use xlink:href="#__lottie_element_316"></use></mask><mask id="__lottie_element_309_1" mask-type="alpha"><use xlink:href="#__lottie_element_309"></use></mask><mask id="__lottie_element_302_1" mask-type="alpha"><use xlink:href="#__lottie_element_302"></use></mask><mask id="__lottie_element_295_1" mask-type="alpha"><use xlink:href="#__lottie_element_295"></use></mask><mask id="__lottie_element_288_1" mask-type="alpha"><use xlink:href="#__lottie_element_288"></use></mask><mask id="__lottie_element_281_1" mask-type="alpha"><use xlink:href="#__lottie_element_281"></use></mask><mask id="__lottie_element_274_1" mask-type="alpha"><use xlink:href="#__lottie_element_274"></use></mask><mask id="__lottie_element_266_1" mask-type="alpha"><use xlink:href="#__lottie_element_266"></use></mask><mask id="__lottie_element_259_1" mask-type="alpha"><use xlink:href="#__lottie_element_259"></use></mask><mask id="__lottie_element_252_1" mask-type="alpha"><use xlink:href="#__lottie_element_252"></use></mask><mask id="__lottie_element_244_1" mask-type="alpha"><use xlink:href="#__lottie_element_244"></use></mask><mask id="__lottie_element_236_1" mask-type="alpha"><use xlink:href="#__lottie_element_236"></use></mask><mask id="__lottie_element_229_1" mask-type="alpha"><use xlink:href="#__lottie_element_229"></use></mask><mask id="__lottie_element_222_1" mask-type="alpha"><use xlink:href="#__lottie_element_222"></use></mask><mask id="__lottie_element_215_1" mask-type="alpha"><use xlink:href="#__lottie_element_215"></use></mask><mask id="__lottie_element_207_1" mask-type="alpha"><use xlink:href="#__lottie_element_207"></use></mask><mask id="__lottie_element_200_1" mask-type="alpha"><use xlink:href="#__lottie_element_200"></use></mask><mask id="__lottie_element_193_1" mask-type="alpha"><use xlink:href="#__lottie_element_193"></use></mask><mask id="__lottie_element_186_1" mask-type="alpha"><use xlink:href="#__lottie_element_186"></use></mask><mask id="__lottie_element_178_1" mask-type="alpha"><use xlink:href="#__lottie_element_178"></use></mask><mask id="__lottie_element_171_1" mask-type="alpha"><use xlink:href="#__lottie_element_171"></use></mask><mask id="__lottie_element_164_1" mask-type="alpha"><use xlink:href="#__lottie_element_164"></use></mask><mask id="__lottie_element_156_1" mask-type="alpha"><use xlink:href="#__lottie_element_156"></use></mask><mask id="__lottie_element_149_1" mask-type="alpha"><use xlink:href="#__lottie_element_149"></use></mask><mask id="__lottie_element_142_1" mask-type="alpha"><use xlink:href="#__lottie_element_142"></use></mask><mask id="__lottie_element_135_1" mask-type="alpha"><use xlink:href="#__lottie_element_135"></use></mask><mask id="__lottie_element_128_1" mask-type="alpha"><use xlink:href="#__lottie_element_128"></use></mask><mask id="__lottie_element_121_1" mask-type="alpha"><use xlink:href="#__lottie_element_121"></use></mask><mask id="__lottie_element_114_1" mask-type="alpha"><use xlink:href="#__lottie_element_114"></use></mask><mask id="__lottie_element_107_1" mask-type="alpha"><use xlink:href="#__lottie_element_107"></use></mask><mask id="__lottie_element_100_1" mask-type="alpha"><use xlink:href="#__lottie_element_100"></use></mask></defs><g clip-path="url(#__lottie_element_2)"><g transform="matrix(-1,0,0,-1,302.0005187988281,138.6038055419922)" opacity="1" style="display: block;"><path fill="rgb(255,233,199)" fill-opacity="1" d=" M0,38.73320007324219 C0,38.73320007324219 16.107099533081055,-0.9211999773979187 18.83930015563965,0.01640000008046627 C34.04866027832031,0.13360999524593353 49.20600128173828,4.769700050354004 61.904300689697266,13.156399726867676 C62.43772888183594,13.521039962768555 62.98419952392578,13.885700225830078 63.504600524902344,14.250300407409668 C71.42803955078125,19.784990310668945 78.4406967163086,26.81730079650879 87.2489013671875,30.776199340820312 C96.05706024169922,34.76118087768555 107.77960205078125,34.70909881591797 114.02469635009766,27.325199127197266 C114.02469635009766,27.325199127197266 107.0250015258789,64.53140258789062 107.0250015258789,64.53140258789062 C97.80049896240234,73.79061889648438 82.51309967041016,74.0250015258789 70.30919647216797,69.40190124511719 C69.19029235839844,68.97215270996094 68.07140350341797,68.50340270996094 66.97850036621094,68.00849914550781 C56.17972183227539,63.190059661865234 46.82509994506836,55.54570007324219 36.83300018310547,49.16450119018555 C25.787019729614258,42.15822982788086 12.867600440979004,36.480201721191406 0.00009999999747378752,38.73320007324219 C0.00009999999747378752,38.73320007324219 0,38.73320007324219 0,38.73320007324219 C0,38.73320007324219 0,38.73320007324219 0,38.73320007324219z"></path></g><g transform="matrix(-1,0,0,-1,241.92391967773438,125.44750213623047)" opacity="1" style="display: block;"><path fill="rgb(255,207,130)" fill-opacity="1" d=" M1.8278000354766846,0 C2.36122989654541,0.3646399974822998 2.9077000617980957,0.7293000221252441 3.428100109100342,1.0938999652862549 C11.351539611816406,6.628590106964111 18.364200592041016,13.660900115966797 27.172399520874023,17.619800567626953 C35.980560302734375,21.604780197143555 47.70309829711914,21.55270004272461 53.94820022583008,14.168800354003906 C53.94820022583008,14.168800354003906 46.94850158691406,51.375 46.94850158691406,51.375 C37.7239990234375,60.634220123291016 22.436599731445312,60.86859893798828 10.23270034790039,56.24549865722656 C9.113789558410645,55.81575012207031 7.994900226593018,55.34700012207031 6.9019999504089355,54.85210037231445 C3.154949903488159,45.44963073730469 0.8521000146865845,35.46110153198242 0.20160000026226044,25.35540008544922 C-0.34483999013900757,16.903600692749023 0.22759999334812164,8.386699676513672 1.8279000520706177,0 C1.8279000520706177,0 1.8278000354766846,0 1.8278000354766846,0 C1.8278000354766846,0 1.8278000354766846,0 1.8278000354766846,0z"></path></g><g transform="matrix(-1,0,0,-1,226.74319458007812,194.0041961669922)" opacity="1" style="display: block;"><path fill="rgb(255,106,61)" fill-opacity="1" d=" M95.181396484375,1.5408999919891357 C194.82937622070312,18.535659790039062 191.82400512695312,111.50550079345703 126.00350189208984,148.5032958984375 C103.70337677001953,127.6147232055664 89.23560333251953,101.30870056152344 85.07219696044922,77.09929656982422 C78.18961334228516,104.42115020751953 55.56420135498047,127.92729949951172 22.270099639892578,136.8218994140625 C-26.97492027282715,80.79779052734375 9.012399673461914,-13.161700248718262 95.181396484375,1.5410000085830688 C95.181396484375,1.5410000085830688 95.181396484375,1.5408999919891357 95.181396484375,1.5408999919891357 C95.181396484375,1.5408999919891357 95.181396484375,1.5408999919891357 95.181396484375,1.5408999919891357z"></path></g><g transform="matrix(-1,0,0,-1,222.04641723632812,185.20530700683594)" opacity="1" style="display: block;"><path fill="rgb(189,51,9)" fill-opacity="1" d=" M89.23529815673828,1.4937000274658203 C183.1326141357422,17.511749267578125 180.7646942138672,102.39440155029297 118.9905014038086,135.86300659179688 C97.8873519897461,116.68041229248047 84.13520050048828,92.58830261230469 80.10189819335938,70.4625015258789 C73.7657470703125,95.37512969970703 52.57160186767578,116.73259735107422 21.26810073852539,124.68949890136719 C-25.387819290161133,73.2624282836914 8.023300170898438,-12.349499702453613 89.23529815673828,1.4937000274658203 C89.23529815673828,1.4937000274658203 89.23529815673828,1.4937000274658203 89.23529815673828,1.4937000274658203 C89.23529815673828,1.4937000274658203 89.23529815673828,1.4937000274658203 89.23529815673828,1.4937000274658203z"></path></g><g transform="matrix(-1,0,0,-1,229.01031494140625,177.39669799804688)" opacity="1" style="display: block;"><path fill="rgb(255,148,61)" fill-opacity="1" d=" M92.9854965209961,1.74590003490448 C192.75057983398438,18.76671028137207 191.9178924560547,100.7843017578125 127.5416030883789,128.92660522460938 C104.68202209472656,111.16349029541016 89.44670104980469,89.23310089111328 84.54170227050781,69.32119750976562 C78.55683898925781,91.4208984375 56.7510986328125,109.90029907226562 23.87339973449707,116.12519836425781 C-26.932889938354492,68.82637023925781 6.712500095367432,-12.969900131225586 92.98560333251953,1.74590003490448 C92.98560333251953,1.74590003490448 92.9854965209961,1.74590003490448 92.9854965209961,1.74590003490448 C92.9854965209961,1.74590003490448 92.9854965209961,1.74590003490448 92.9854965209961,1.74590003490448z"></path></g><g transform="matrix(-1,0,0,-1,236.30230712890625,170.02569580078125)" opacity="1" style="display: block;"><path fill="rgb(255,184,62)" fill-opacity="1" d=" M103.13999938964844,1.6806000471115112 C210.30810546875,19.96462059020996 204.4792938232422,118.62539672851562 132.5699005126953,165.02569580078125 C104.45404815673828,153.13587951660156 96.9208984375,99.6250991821289 92.99169921875,70.37590026855469 C77.14482116699219,102.88082122802734 56.04169845581055,145.42630004882812 23.085899353027344,151.92469787597656 C-28.74822998046875,85.1176986694336 10.465700149536133,-14.12909984588623 103.13999938964844,1.6806000471115112 C103.13999938964844,1.6806000471115112 103.13999938964844,1.6806000471115112 103.13999938964844,1.6806000471115112 C103.13999938964844,1.6806000471115112 103.13999938964844,1.6806000471115112 103.13999938964844,1.6806000471115112z"></path></g><g transform="matrix(-1,0,0,-1,163.8765106201172,96.472900390625)" opacity="1" style="display: block;"><path fill="rgb(255,148,61)" fill-opacity="1" d=" M7.542300224304199,0 C9.689040184020996,0.1041800007224083 11.4975004196167,1.9142999649047852 12.043999671936035,3.997999906539917 C12.590439796447754,6.0816497802734375 12.043999671936035,8.321599960327148 11.016200065612793,10.196900367736816 C9.988360404968262,12.072179794311523 8.505200386047363,13.660900115966797 7.034999847412109,15.236700057983398 C5.8770599365234375,16.47386932373047 4.367800235748291,17.815200805664062 2.7284998893737793,17.411500930786133 C1.2452900409698486,17.046859741210938 0.47760000824928284,15.392999649047852 0.19140000641345978,13.88230037689209 C-0.7453600168228149,8.855500221252441 1.7656999826431274,3.3859000205993652 7.542399883270264,0 C7.542399883270264,0 7.542300224304199,0 7.542300224304199,0 C7.542300224304199,0 7.542300224304199,0 7.542300224304199,0z"></path></g><g transform="matrix(-1,0,0,-1,170.75250244140625,85.10569763183594)" opacity="1" style="display: block;"><path fill="rgb(255,148,61)" fill-opacity="1" d=" M0.8222000002861023,5.015900135040283 C1.4857399463653564,5.510769844055176 2.435499906539917,5.523799896240234 3.151099920272827,5.120100021362305 C3.8666799068450928,4.716390132904053 4.348100185394287,3.947999954223633 4.504199981689453,3.1405999660491943 C4.764410018920898,1.7341400384902954 3.8276000022888184,0.06719999760389328 2.4094998836517334,0.002099999925121665 C1.3166099786758423,-0.04998999834060669 0.3278000056743622,0.8876000046730042 0.09359999746084213,1.9555000066757202 C-0.12758000195026398,3.0233700275421143 0.01549999974668026,4.403800010681152 0.8222000002861023,5.015900135040283 C0.8222000002861023,5.015900135040283 0.8222000002861023,5.015900135040283 0.8222000002861023,5.015900135040283 C0.8222000002861023,5.015900135040283 0.8222000002861023,5.015900135040283 0.8222000002861023,5.015900135040283z"></path></g><g transform="matrix(-1,0,0,-1,137.8599090576172,95.36160278320312)" opacity="1" style="display: block;"><path fill="rgb(255,148,61)" fill-opacity="1" d=" M3.9951999187469482,5.440499782562256 C5.556469917297363,4.737269878387451 6.167900085449219,2.484299898147583 5.15310001373291,1.1038999557495117 C4.138279914855957,-0.2765200138092041 1.809399962425232,-0.3806999921798706 0.6644999980926514,0.8955000042915344 C0.18310999870300293,1.4424599409103394 -0.09009999781847,2.2107999324798584 0.027000000700354576,2.9400999546051025 C0.15711000561714172,3.8126299381256104 0.7815999984741211,4.528900146484375 1.5232000350952148,4.997700214385986 C2.2648000717163086,5.466519832611084 3.1624999046325684,5.81820011138916 3.9951999187469482,5.440499782562256 C3.9951999187469482,5.440499782562256 3.9951999187469482,5.440499782562256 3.9951999187469482,5.440499782562256 C3.9951999187469482,5.440499782562256 3.9951999187469482,5.440499782562256 3.9951999187469482,5.440499782562256z"></path></g><g transform="matrix(-1,0,0,-1,233.56350708007812,88.32450103759766)" opacity="1" style="display: block;"><path fill="rgb(255,148,61)" fill-opacity="1" d=" M5.619100093841553,15.072199821472168 C7.297460079193115,14.525239944458008 8.546500205993652,13.05370044708252 9.170999526977539,11.399800300598145 C9.795510292053223,9.74590015411377 9.860600471496582,7.935800075531006 9.756500244140625,6.177700042724609 C9.62639045715332,3.989870071411133 9.066900253295898,1.541599988937378 7.167399883270264,0.46070000529289246 C5.111730098724365,-0.6983299851417542 2.327500104904175,0.46070000529289246 1.0785000324249268,2.4791998863220215 C-0.17051999270915985,4.484710216522217 -0.1704999953508377,7.037099838256836 0.2587999999523163,9.355199813842773 C0.5450299978256226,10.826780319213867 1.0003999471664429,12.324399948120117 1.976199984550476,13.470399856567383 C2.9389801025390625,14.616410255432129 4.513299942016602,15.423800468444824 5.619200229644775,15.072199821472168 C5.619200229644775,15.072199821472168 5.619100093841553,15.072199821472168 5.619100093841553,15.072199821472168 C5.619100093841553,15.072199821472168 5.619100093841553,15.072199821472168 5.619100093841553,15.072199821472168z"></path></g><g transform="matrix(-1,0,0,-1,65.17530822753906,75.76000213623047)" opacity="1" style="display: block;"><path fill="rgb(255,148,61)" fill-opacity="1" d=" M3.3238000869750977,13.524299621582031 C7.5912699699401855,13.042460441589355 9.243599891662598,4.291100025177002 7.018799781799316,0.12380000203847885 C-0.12400999665260315,-1.54312002658844 -2.6089999675750732,14.18850040435791 3.3238000869750977,13.524299621582031 C3.3238000869750977,13.524299621582031 3.3238000869750977,13.524299621582031 3.3238000869750977,13.524299621582031 C3.3238000869750977,13.524299621582031 3.3238000869750977,13.524299621582031 3.3238000869750977,13.524299621582031z"></path></g><g transform="matrix(-1,0,0,-1,106.11241149902344,139.131103515625)" opacity="1" style="display: block;"><path fill="rgb(255,207,130)" fill-opacity="1" d=" M31.47170066833496,80.69779968261719 C45.6922607421875,53.88383865356445 40.852298736572266,30.70319938659668 30.469900131225586,13.174500465393066 C24.88835906982422,1.3758399486541748 6.569499969482422,-7.375500202178955 1.4172999858856201,9.0201997756958 C-7.44290018081665,37.22760009765625 27.997900009155273,45.90079879760742 31.47170066833496,80.69770050048828 C31.47170066833496,80.69770050048828 31.47170066833496,80.69779968261719 31.47170066833496,80.69779968261719 C31.47170066833496,80.69779968261719 31.47170066833496,80.69779968261719 31.47170066833496,80.69779968261719z"></path></g><g transform="matrix(-1,0,0,-1,213.28961181640625,65.40260314941406)" opacity="1" style="display: block;"><path fill="rgb(255,207,130)" fill-opacity="1" d=" M43.47629928588867,0.19740000367164612 C37.920780181884766,15.759650230407715 27.30419921875,29.4596004486084 13.63010025024414,38.7057991027832 C10.247349739074707,40.99781036376953 5.524499893188477,42.96419906616211 2.3629000186920166,40.37269973754883 C-0.10910999774932861,38.35416030883789 -0.14810000360012054,34.65570068359375 0.09910000115633011,31.465099334716797 C0.6455399990081787,24.21139907836914 1.868499994277954,16.358600616455078 7.137800216674805,11.33180046081543 C10.234319686889648,8.375619888305664 14.371600151062012,6.799799919128418 18.3789005279541,5.302199840545654 C26.48448944091797,2.267889976501465 35.12350082397461,-0.8184999823570251 43.47629928588867,0.1973000019788742 C43.47629928588867,0.1973000019788742 43.47629928588867,0.19740000367164612 43.47629928588867,0.19740000367164612 C43.47629928588867,0.19740000367164612 43.47629928588867,0.19740000367164612 43.47629928588867,0.19740000367164612z"></path></g><g transform="matrix(-1,0,0,-1,128.28469848632812,154.29519653320312)" opacity="1" style="display: block;"><path fill="rgb(255,207,130)" fill-opacity="1" d=" M0.18330000340938568,9.169500350952148 C1.1720999479293823,3.335279941558838 5.9079999923706055,-0.7148000001907349 10.73490047454834,0.10559999942779541 C15.574830055236816,0.92603999376297 18.68440055847168,6.33050012588501 17.695600509643555,12.151700019836426 C16.70680046081543,17.972890853881836 11.97089958190918,22.035999298095703 7.144000053405762,21.215599060058594 C2.304069995880127,20.395160675048828 -0.8054999709129333,14.990699768066406 0.18330000340938568,9.169500350952148 C0.18330000340938568,9.169500350952148 0.18330000340938568,9.169500350952148 0.18330000340938568,9.169500350952148 C0.18330000340938568,9.169500350952148 0.18330000340938568,9.169500350952148 0.18330000340938568,9.169500350952148z"></path></g><g transform="matrix(0,0,0,0,152,125.5)" opacity="1" style="display: block;"><path stroke-linecap="round" stroke-linejoin="miter" fill-opacity="0" stroke-miterlimit="0" stroke="rgb(255,148,61)" stroke-opacity="1" stroke-width="1.4" d=" M8,0 C8,0 0,9 0,9"></path></g><g transform="matrix(0,0,0,0,144,116)" opacity="1" style="display: block;"><path stroke-linecap="round" stroke-linejoin="miter" fill-opacity="0" stroke-miterlimit="0" stroke="rgb(255,148,61)" stroke-opacity="1" stroke-width="1.4" d=" M0,0 C0,0 8,9.5 8,9.5"></path></g><g transform="matrix(0,0,0,0,152,108.5)" opacity="1" style="display: block;"><path stroke-linecap="round" stroke-linejoin="miter" fill-opacity="0" stroke-miterlimit="0" stroke="rgb(255,148,61)" stroke-opacity="1" stroke-width="1.4" d=" M8,0 C8,0 0,7 0,7"></path></g><g transform="matrix(0,0,0,0,143.5,100)" opacity="1" style="display: block;"><path stroke-linecap="round" stroke-linejoin="miter" fill-opacity="0" stroke-miterlimit="0" stroke="rgb(255,148,61)" stroke-opacity="1" stroke-width="1.4" d=" M0,0 C0,0 8.5,8.5 8.5,8.5"></path></g><g transform="matrix(0,0,0,0,152,160.5)" opacity="1" style="display: block;"><path stroke-linecap="round" stroke-linejoin="miter" fill-opacity="0" stroke-miterlimit="0" stroke="rgb(255,148,61)" stroke-opacity="1" stroke-width="1.4" d=" M8,0 C8,0 0,9 0,9"></path></g><g transform="matrix(0,0,0,0,144,151)" opacity="1" style="display: block;"><path stroke-linecap="round" stroke-linejoin="miter" fill-opacity="0" stroke-miterlimit="0" stroke="rgb(255,148,61)" stroke-opacity="1" stroke-width="1.4" d=" M0,0 C0,0 8,9.5 8,9.5"></path></g><g transform="matrix(0,0,0,0,152,143.5)" opacity="1" style="display: block;"><path stroke-linecap="round" stroke-linejoin="miter" fill-opacity="0" stroke-miterlimit="0" stroke="rgb(255,148,61)" stroke-opacity="1" stroke-width="1.4" d=" M8,0 C8,0 0,7 0,7"></path></g><g transform="matrix(0,0,0,0,143.5,135)" opacity="1" style="display: block;"><path stroke-linecap="round" stroke-linejoin="miter" fill-opacity="0" stroke-miterlimit="0" stroke="rgb(255,148,61)" stroke-opacity="1" stroke-width="1.4" d=" M0,0 C0,0 8.5,8.5 8.5,8.5"></path></g><g mask="url(#__lottie_element_100_1)" style="display: block;"><g transform="matrix(0.20000000298023224,0,0,0.20000000298023224,147.79087829589844,86.3997802734375)" opacity="1"><path fill="rgb(255,184,62)" fill-opacity="1" d=" M103.04560089111328,26.366500854492188 C95.12834167480469,60.52500915527344 75.6281967163086,90.75240325927734 49.3484001159668,109.5896987915039 C29.469079971313477,106.74220275878906 13.19789981842041,89.78399658203125 5.372600078582764,68.81390380859375 C5.246200084686279,68.47958374023438 5.1427998542785645,68.15679931640625 5.01639986038208,67.81089782714844 C-2.42972993850708,47.071388244628906 -1.5448999404907227,22.98870086669922 7.394999980926514,3.5634000301361084 C11.773050308227539,2.4220900535583496 16.13960075378418,1.5460000038146973 20.52910041809082,0.9580000042915344 C45.98152160644531,-2.4889800548553467 71.23860168457031,3.4365999698638916 91.95680236816406,17.593399047851562 C95.8292465209961,20.23339080810547 99.52940368652344,23.173099517822266 103.04560089111328,26.366500854492188 C103.04560089111328,26.366500854492188 103.04560089111328,26.366500854492188 103.04560089111328,26.366500854492188 C103.04560089111328,26.366500854492188 103.04560089111328,26.366500854492188 103.04560089111328,26.366500854492188z"></path></g></g><g mask="url(#__lottie_element_107_1)" style="display: block;"><g transform="matrix(0.20000000298023224,0,0,0.20000000298023224,151.89671325683594,86.3997802734375)" opacity="1"><path fill="rgb(255,207,130)" fill-opacity="1" d=" M71.42769622802734,17.593399047851562 C60.00571060180664,21.951120376586914 47.49209976196289,22.977100372314453 35.50699996948242,20.533100128173828 C22.361370086669922,17.84699058532715 9.928199768066406,10.964599609375 0,0.9580000042915344 C25.45241928100586,-2.4889800548553467 50.70949935913086,3.4365999698638916 71.42769622802734,17.593399047851562 C71.42769622802734,17.593399047851562 71.42769622802734,17.593399047851562 71.42769622802734,17.593399047851562 C71.42769622802734,17.593399047851562 71.42769622802734,17.593399047851562 71.42769622802734,17.593399047851562z"></path></g></g><g mask="url(#__lottie_element_114_1)" style="display: block;"><g transform="matrix(0.20000000298023224,0,0,0.20000000298023224,159.7642822265625,91.28820037841797)" opacity="1"><path fill="rgb(255,207,130)" fill-opacity="1" d=" M2.1214001178741455,3.711199998855591 C-5.531559944152832,10.409170150756836 9.556099891662598,10.801199913024902 15.209600448608398,7.400300025939941 C20.414989471435547,5.382840156555176 23.299299240112305,-0.6464999914169312 15.922100067138672,0.056699998676776886 C11.14186954498291,0.506309986114502 6.085899829864502,0.25270000100135803 2.121500015258789,3.711199998855591 C2.121500015258789,3.711199998855591 2.1214001178741455,3.711199998855591 2.1214001178741455,3.711199998855591 C2.1214001178741455,3.711199998855591 2.1214001178741455,3.711199998855591 2.1214001178741455,3.711199998855591z"></path></g></g><g mask="url(#__lottie_element_121_1)" style="display: block;"><g transform="matrix(0.20000000298023224,0,0,0.20000000298023224,148.79185485839844,91.67306518554688)" opacity="1"><path fill="rgb(255,148,61)" fill-opacity="1" d=" M98.0291976928711,0 C96.54686737060547,6.432819843292236 94.63939666748047,12.727299690246582 92.36419677734375,18.8257999420166 C82.52796173095703,45.13349914550781 65.6593017578125,67.92510223388672 44.33209991455078,83.22319793701172 C39.57484817504883,82.54302978515625 35.0359001159668,81.04440307617188 30.749799728393555,78.88860321044922 C17.144529342651367,72.04075622558594 6.308599948883057,58.4026985168457 0.3562999963760376,42.4474983215332 C0.22990000247955322,42.11317825317383 0.11500000208616257,41.79029846191406 0.00009999999747378752,41.44449996948242 C37.816768646240234,38.98896026611328 64.86650085449219,30.1697998046875 98.029296875,0.00009999999747378752 C98.029296875,0.00009999999747378752 98.0291976928711,0 98.0291976928711,0 C98.0291976928711,0 98.0291976928711,0 98.0291976928711,0z"></path></g></g><g mask="url(#__lottie_element_128_1)" style="display: block;"><g transform="matrix(0.20000000298023224,0,0,0.20000000298023224,154.89132690429688,95.43824005126953)" opacity="1"><path fill="rgb(255,106,61)" fill-opacity="1" d=" M61.87839889526367,0 C52.04216003417969,26.30769920349121 35.173500061035156,49.099300384521484 13.84630012512207,64.39739990234375 C9.08905029296875,63.71723175048828 4.550099849700928,62.21860122680664 0.2639999985694885,60.062801361083984 C-0.18414999544620514,57.491981506347656 -0.06920000165700912,54.81740188598633 0.6661999821662903,52.31570053100586 C23.590620040893555,38.1934700012207 44.48109817504883,20.55500030517578 61.87839889526367,0 C61.87839889526367,0 61.87839889526367,0 61.87839889526367,0 C61.87839889526367,0 61.87839889526367,0 61.87839889526367,0z"></path></g></g><g mask="url(#__lottie_element_135_1)" style="display: block;"><g transform="matrix(0.20000000298023224,0,0,0.20000000298023224,146.59042358398438,87.11246490478516)" opacity="1"><path fill="rgb(255,148,61)" fill-opacity="1" d=" M13.385899543762207,0 C48.78947830200195,14.560310363769531 73.57540130615234,69.4468002319336 55.350799560546875,106.02629852294922 C6.548789978027344,116.251953125 -16.593900680541992,25.477699279785156 13.385899543762207,0 C13.385899543762207,0 13.385899543762207,0 13.385899543762207,0 C13.385899543762207,0 13.385899543762207,0 13.385899543762207,0z"></path></g></g><g mask="url(#__lottie_element_142_1)" style="display: block;"><g transform="matrix(0.20000000298023224,0,0,0.20000000298023224,146.58883666992188,91.50244140625)" opacity="1"><path fill="rgb(255,184,62)" fill-opacity="1" d=" M59.66780090332031,72.17900085449219 C58.6680908203125,76.30615234375 57.24319839477539,80.28350067138672 55.347198486328125,84.07630157470703 C16.369949340820312,92.2499008178711 -6.25570011138916,35.96849822998047 1.5236999988555908,0 C-2.348750114440918,39.680599212646484 19.75979995727539,72.17900085449219 59.66780090332031,72.17900085449219 C59.66780090332031,72.17900085449219 59.66780090332031,72.17900085449219 59.66780090332031,72.17900085449219 C59.66780090332031,72.17900085449219 59.66780090332031,72.17900085449219 59.66780090332031,72.17900085449219z"></path></g></g><g mask="url(#__lottie_element_149_1)" style="display: block;"><g transform="matrix(0.20000000298023224,0,0,0.20000000298023224,147.83668518066406,89.27978515625)" opacity="1"><path fill="rgb(255,106,61)" fill-opacity="1" d=" M10.67080020904541,0 C38.904029846191406,11.609049797058105 58.65700149536133,55.382198333740234 44.13240051269531,84.53739929199219 C5.224090099334717,92.68795013427734 -13.230299949645996,20.312999725341797 10.67080020904541,0 C10.67080020904541,0 10.67080020904541,0 10.67080020904541,0 C10.67080020904541,0 10.67080020904541,0 10.67080020904541,0z"></path></g></g><g mask="url(#__lottie_element_156_1)" style="display: block;"><g transform="matrix(0.20000000298023224,0,0,0.20000000298023224,148.69093322753906,90.76232147216797)" opacity="1"><path fill="rgb(189,51,9)" fill-opacity="1" d=" M8.812600135803223,0 C32.127708435058594,9.59158992767334 48.444801330566406,45.733001708984375 36.448299407958984,69.80419921875 C4.319640159606934,76.53675842285156 -10.928799629211426,16.773799896240234 8.812600135803223,0 C8.812600135803223,0 8.812600135803223,0 8.812600135803223,0 C8.812600135803223,0 8.812600135803223,0 8.812600135803223,0z"></path></g></g><g mask="url(#__lottie_element_164_1)" style="display: none;"><g transform="matrix(1,0,0,1,177.41419982910156,138.26890563964844)" opacity="1"><path fill="rgb(255,148,61)" fill-opacity="1" d=" M7.146599769592285,3.427000045776367 C7.261509895324707,-0.5156999826431274 -0.32249999046325684,-1.8415000438690186 0.010700000450015068,3.7267000675201416 C1.4011000394821167,8.257340431213379 7.0432000160217285,6.850900173187256 7.146599769592285,3.427000045776367 C7.146599769592285,3.427000045776367 7.146599769592285,3.427000045776367 7.146599769592285,3.427000045776367 C7.146599769592285,3.427000045776367 7.146599769592285,3.427000045776367 7.146599769592285,3.427000045776367z"></path></g></g><g mask="url(#__lottie_element_171_1)" style="display: none;"><g transform="matrix(1,0,0,1,180.9738006591797,147.8927001953125)" opacity="1"><path fill="rgb(255,148,61)" fill-opacity="1" d=" M4.207399845123291,2.2995998859405518 C4.207399845123291,-0.24817000329494476 -0.27410000562667847,-1.2626999616622925 0.013199999928474426,2.3457000255584717 C0.9094899892807007,5.3200201988220215 4.207399845123291,4.524600028991699 4.207399845123291,2.2995998859405518 C4.207399845123291,2.2995998859405518 4.207399845123291,2.2995998859405518 4.207399845123291,2.2995998859405518 C4.207399845123291,2.2995998859405518 4.207399845123291,2.2995998859405518 4.207399845123291,2.2995998859405518z"></path></g></g><g mask="url(#__lottie_element_178_1)" style="display: block;"><g transform="matrix(0.20000000298023224,0,0,0.20000000298023224,159.3240966796875,103.97274017333984)" opacity="1"><path fill="rgb(255,184,62)" fill-opacity="1" d=" M4.207499980926514,2.2995998859405518 C4.207499980926514,-0.24817000329494476 -0.27399998903274536,-1.2626999616622925 0.013299999758601189,2.3457000255584717 C0.8981000185012817,5.3200201988220215 4.196000099182129,4.513000011444092 4.207499980926514,2.2995998859405518 C4.207499980926514,2.2995998859405518 4.207499980926514,2.2995998859405518 4.207499980926514,2.2995998859405518 C4.207499980926514,2.2995998859405518 4.207499980926514,2.2995998859405518 4.207499980926514,2.2995998859405518z"></path></g></g><g mask="url(#__lottie_element_186_1)" style="display: none;"><g transform="matrix(0.6691306233406067,0.7431448101997375,-0.7431448101997375,0.6691306233406067,148.57354736328125,39.135902404785156)" opacity="1"><path fill="rgb(255,148,61)" fill-opacity="1" d=" M1.3752000331878662,0.04659999907016754 C0.26058000326156616,-0.4145300090312958 -0.785099983215332,2.6865999698638916 0.835099995136261,3.1247000694274902 C2.236989974975586,3.0094199180603027 2.340399980545044,0.45010000467300415 1.3752000331878662,0.04659999907016754 C1.3752000331878662,0.04659999907016754 1.3752000331878662,0.04659999907016754 1.3752000331878662,0.04659999907016754 C1.3752000331878662,0.04659999907016754 1.3752000331878662,0.04659999907016754 1.3752000331878662,0.04659999907016754z"></path></g></g><g mask="url(#__lottie_element_193_1)" style="display: none;"><g transform="matrix(0.6691306233406067,0.7431448101997375,-0.7431448101997375,0.6691306233406067,155.2246856689453,34.63088607788086)" opacity="1"><path fill="rgb(255,184,62)" fill-opacity="1" d=" M3.5244998931884766,1.8361999988555908 C3.5474801063537598,-0.22737999260425568 -0.19850000739097595,-0.9998000264167786 0.008299999870359898,1.9169000387191772 C0.732230007648468,4.303269863128662 3.501499891281128,3.6231000423431396 3.5244998931884766,1.8361999988555908 C3.5244998931884766,1.8361999988555908 3.5244998931884766,1.8361999988555908 3.5244998931884766,1.8361999988555908 C3.5244998931884766,1.8361999988555908 3.5244998931884766,1.8361999988555908 3.5244998931884766,1.8361999988555908z"></path></g></g><g mask="url(#__lottie_element_200_1)" style="display: none;"><g transform="matrix(0.6691306233406067,0.7431448101997375,-0.7431448101997375,0.6691306233406067,148.86624145507812,44.570579528808594)" opacity="1"><path fill="rgb(255,184,62)" fill-opacity="1" d=" M4.207399845123291,2.2995998859405518 C4.207399845123291,-0.24817000329494476 -0.27410000562667847,-1.2626999616622925 0.013199999928474426,2.3457000255584717 C0.9094899892807007,5.308489799499512 4.207399845123291,4.513000011444092 4.207399845123291,2.2995998859405518 C4.207399845123291,2.2995998859405518 4.207399845123291,2.2995998859405518 4.207399845123291,2.2995998859405518 C4.207399845123291,2.2995998859405518 4.207399845123291,2.2995998859405518 4.207399845123291,2.2995998859405518z"></path></g></g><g mask="url(#__lottie_element_207_1)" style="display: block;"><g transform="matrix(0.20000000298023224,0,0,0.20000000298023224,157.6739959716797,93.7125015258789)" opacity="1"><path fill="rgb(255,148,61)" fill-opacity="1" d=" M4.207399845123291,2.2995998859405518 C4.207399845123291,-0.24817000329494476 -0.27410000562667847,-1.2626999616622925 0.013199999928474426,2.3457000255584717 C0.9094899892807007,5.3200201988220215 4.207399845123291,4.513000011444092 4.207399845123291,2.2995998859405518 C4.207399845123291,2.2995998859405518 4.207399845123291,2.2995998859405518 4.207399845123291,2.2995998859405518 C4.207399845123291,2.2995998859405518 4.207399845123291,2.2995998859405518 4.207399845123291,2.2995998859405518z"></path></g></g><g mask="url(#__lottie_element_215_1)" style="display: block;"><g transform="matrix(0.20000000298023224,0,0,0.20000000298023224,132.13229370117188,91.87366485595703)" opacity="1"><path fill="rgb(255,233,199)" fill-opacity="1" d=" M123.03350067138672,50.886199951171875 C120.17225646972656,56.039371490478516 116.59850311279297,60.662200927734375 112.48480224609375,64.72019958496094 C112.48480224609375,64.72019958496094 112.48100280761719,64.72019958496094 112.47329711914062,64.72019958496094 C109.8533706665039,67.31407928466797 107.00360107421875,69.68890380859375 103.99299621582031,71.81009674072266 C94.85771179199219,78.20834350585938 84.18270111083984,82.37000274658203 73.26629638671875,83.98400115966797 C71.37030029296875,84.26068115234375 69.46279907226562,84.46820068359375 67.56680297851562,84.59500122070312 C49.03192138671875,85.72477722167969 27.716299057006836,77.8279037475586 11.433600425720215,90.9010009765625 C11.491049766540527,88.87200927734375 0.00009999999747378752,41.594200134277344 0.00009999999747378752,41.594200134277344 C1.4594500064849854,24.313199996948242 10.468400001525879,15.470999717712402 22.752199172973633,11.343799591064453 C39.81623840332031,5.6372599601745605 63.18880081176758,9.049699783325195 81.41339874267578,11.631999969482422 C82.05689239501953,11.574359893798828 82.70040130615234,11.482099533081055 83.3323974609375,11.366800308227539 C88.57227325439453,10.456060409545898 93.49040222167969,7.758399963378906 97.52369689941406,3.8849000930786133 C98.76471710205078,2.6974799633026123 99.93679809570312,1.394700050354004 100.99400329589844,-0.00019999999494757503 C115.33468627929688,11.170780181884766 124.97560119628906,32.29079818725586 123.03359985351562,50.88600158691406 C123.03359985351562,50.88600158691406 123.03350067138672,50.886199951171875 123.03350067138672,50.886199951171875 C123.03350067138672,50.886199951171875 123.03350067138672,50.886199951171875 123.03350067138672,50.886199951171875z"></path></g></g><g mask="url(#__lottie_element_222_1)" style="display: block;"><g transform="matrix(0.20000000298023224,0,0,0.20000000298023224,132.1345977783203,94.14014434814453)" opacity="1"><path fill="rgb(255,207,130)" fill-opacity="1" d=" M73.26619720458984,72.64019775390625 C71.37020111083984,72.91687774658203 69.46269989013672,73.12439727783203 67.56670379638672,73.2511978149414 C49.03181838989258,74.3809814453125 27.71619987487793,66.48410034179688 11.433500289916992,79.55719757080078 C11.490949630737305,77.52821350097656 0,30.25040054321289 0,30.25040054321289 C1.4593499898910522,12.969400405883789 10.468299865722656,4.127200126647949 22.752099990844727,0 C35.90922164916992,7.931509971618652 47.561100006103516,19.03339958190918 56.52399826049805,32.429298400878906 C64.5331802368164,44.41878890991211 70.37059783935547,58.1952018737793 73.26629638671875,72.64019775390625 C73.26629638671875,72.64019775390625 73.26619720458984,72.64019775390625 73.26619720458984,72.64019775390625 C73.26619720458984,72.64019775390625 73.26619720458984,72.64019775390625 73.26619720458984,72.64019775390625z"></path></g></g><g mask="url(#__lottie_element_229_1)" style="display: block;"><g transform="matrix(0.20000000298023224,0,0,0.20000000298023224,151.63702392578125,91.87366485595703)" opacity="1"><path fill="rgb(255,207,130)" fill-opacity="1" d=" M25.509899139404297,50.886199951171875 C22.64866065979004,56.039371490478516 19.074899673461914,60.662200927734375 14.961199760437012,64.72019958496094 C14.961199760437012,64.72019958496094 14.95740032196045,64.72019958496094 14.949700355529785,64.72019958496094 C12.3297700881958,67.31407928466797 9.479999542236328,69.68890380859375 6.469399929046631,71.81009674072266 C8.365400314331055,50.05609130859375 6.15910005569458,26.4689998626709 0,3.884999990463257 C1.2410199642181396,2.697580099105835 2.413100004196167,1.3947999477386475 3.4702999591827393,-0.00009999999747378752 C17.810989379882812,11.170869827270508 27.451900482177734,32.29090118408203 25.509899139404297,50.88610076904297 C25.509899139404297,50.88610076904297 25.509899139404297,50.886199951171875 25.509899139404297,50.886199951171875 C25.509899139404297,50.886199951171875 25.509899139404297,50.886199951171875 25.509899139404297,50.886199951171875z"></path></g></g><g mask="url(#__lottie_element_236_1)" style="display: block;"><g transform="matrix(0.20000000298023224,0,0,0.20000000298023224,144.3673553466797,96.28205871582031)" opacity="1"><path fill="rgb(255,106,61)" fill-opacity="1" d=" M22.43280029296875,40.1880989074707 C-14.131360054016113,22.584299087524414 0.8986999988555908,-17.303800582885742 19.07740020751953,16.923900604248047 C31.246299743652344,-24.635820388793945 41.496299743652344,21.051000595092773 22.43280029296875,40.1880989074707 C22.43280029296875,40.1880989074707 22.43280029296875,40.1880989074707 22.43280029296875,40.1880989074707 C22.43280029296875,40.1880989074707 22.43280029296875,40.1880989074707 22.43280029296875,40.1880989074707z"></path></g></g><g mask="url(#__lottie_element_244_1)" style="display: block;"><g transform="matrix(0.20000000298023224,0,0,0.20000000298023224,120.5999984741211,91.06668090820312)" opacity="1"><path fill="rgb(255,184,62)" fill-opacity="1" d=" M91.44490051269531,111.6406021118164 C59.546058654785156,115.91761779785156 26.325700759887695,106.59120178222656 0,85.93240356445312 C6.641759872436523,49.629608154296875 29.8075008392334,17.649900436401367 62.53369903564453,0 C81.03411102294922,8.577099800109863 95.8573989868164,26.49209976196289 102.12000274658203,47.78499984741211 C102.22341918945312,48.13085174560547 102.32689666748047,48.4651985168457 102.4302978515625,48.81100082397461 C108.52050018310547,70.55348205566406 105.56739807128906,95.24720001220703 91.44499969482422,111.6405029296875 C91.44499969482422,111.6405029296875 91.44490051269531,111.6406021118164 91.44490051269531,111.6406021118164 C91.44490051269531,111.6406021118164 91.44490051269531,111.6406021118164 91.44490051269531,111.6406021118164z"></path></g></g><g mask="url(#__lottie_element_252_1)" style="display: none;"><g transform="matrix(1,0,0,1,125.81999969482422,155.56539916992188)" opacity="1"><path fill="rgb(255,184,62)" fill-opacity="1" d=" M0.9009000062942505,1.3289999961853027 C1.8546500205993652,0.7525799870491028 2.8313000202178955,0.16459999978542328 3.9000000953674316,0.02630000002682209 C4.9686598777771,-0.11203999817371368 6.17519998550415,0.2915000021457672 6.73829984664917,1.3174999952316284 C7.255390167236328,2.2628300189971924 7.117499828338623,3.5309998989105225 6.5543999671936035,4.441699981689453 C5.991340160369873,5.340909957885742 5.060500144958496,5.905799865722656 4.095300197601318,6.147900104522705 C2.900239944458008,6.459169864654541 1.5097999572753906,6.2631001472473145 0.659500002861023,5.271699905395508 C-0.17934000492095947,4.28026008605957 -0.3402000069618225,2.0782999992370605 0.9007999897003174,1.3289999961853027 C0.9007999897003174,1.3289999961853027 0.9009000062942505,1.3289999961853027 0.9009000062942505,1.3289999961853027 C0.9009000062942505,1.3289999961853027 0.9009000062942505,1.3289999961853027 0.9009000062942505,1.3289999961853027z"></path></g></g><g mask="url(#__lottie_element_259_1)" style="display: none;"><g transform="matrix(1,0,0,1,132.86959838867188,149.8249969482422)" opacity="1"><path fill="rgb(255,184,62)" fill-opacity="1" d=" M0.38960000872612,0.6251000165939331 C0.7917799949645996,0.3599500060081482 1.205399990081787,0.08330000191926956 1.6535999774932861,0.014100000262260437 C2.101749897003174,-0.055070001631975174 2.6073999404907227,0.12929999828338623 2.8371999263763428,0.6019999980926514 C3.055530071258545,1.0285500288009644 2.986599922180176,1.628000020980835 2.745300054550171,2.0429999828338623 C2.5039899349212646,2.458019971847534 2.113300085067749,2.7232000827789307 1.7110999822616577,2.8385000228881836 C1.2055000066757202,2.988369941711426 0.6309000253677368,2.907599925994873 0.27469998598098755,2.446500062942505 C-0.08151999861001968,1.9968899488449097 -0.13899999856948853,0.9824000000953674 0.38960000872612,0.625 C0.38960000872612,0.625 0.38960000872612,0.6251000165939331 0.38960000872612,0.6251000165939331 C0.38960000872612,0.6251000165939331 0.38960000872612,0.6251000165939331 0.38960000872612,0.6251000165939331z"></path></g></g><g mask="url(#__lottie_element_266_1)" style="display: none;"><g transform="matrix(1,0,0,1,135.83428955078125,157.26080322265625)" opacity="1"><path fill="rgb(255,148,61)" fill-opacity="1" d=" M0.38960000872612,0.6251000165939331 C0.7917799949645996,0.3599500060081482 1.205399990081787,0.08330000191926956 1.6535999774932861,0.014100000262260437 C2.101749897003174,-0.055070001631975174 2.6073999404907227,0.12939999997615814 2.8371999263763428,0.6021000146865845 C3.055530071258545,1.0286500453948975 2.986599922180176,1.628100037574768 2.745300054550171,2.043100118637085 C2.5039899349212646,2.458120107650757 2.113300085067749,2.7232000827789307 1.7110999822616577,2.8385000228881836 C1.2055000066757202,2.988369941711426 0.6309000253677368,2.907599925994873 0.27469998598098755,2.446500062942505 C-0.08151999861001968,1.9853700399398804 -0.13899999856948853,0.9708999991416931 0.38960000872612,0.625 C0.38960000872612,0.625 0.38960000872612,0.6251000165939331 0.38960000872612,0.6251000165939331 C0.38960000872612,0.6251000165939331 0.38960000872612,0.6251000165939331 0.38960000872612,0.6251000165939331z"></path></g></g><g mask="url(#__lottie_element_274_1)" style="display: none;"><g transform="matrix(1,0,0,1,88.29879760742188,41.94499969482422)" opacity="1"><path fill="rgb(255,184,62)" fill-opacity="1" d=" M1.4989999532699585,7.013700008392334 C0.9014700055122375,5.999199867248535 0.2924000024795532,4.961599826812744 0.07410000264644623,3.774199962615967 C-0.14422999322414398,2.586780071258545 0.10859999805688858,1.214900016784668 0.9818999767303467,0.4885999858379364 C1.7747700214385986,-0.1685200035572052 2.9238998889923096,-0.1340000033378601 3.774199962615967,0.41940000653266907 C4.624529838562012,0.972760021686554 5.198999881744385,1.9642000198364258 5.509300231933594,3.0132999420166016 C5.888500213623047,4.315999984741211 5.842599868774414,5.883900165557861 5.026700019836426,6.92140007019043 C4.210840225219727,7.958950042724609 2.268899917602539,8.327799797058105 1.4989999532699585,7.013599872589111 C1.4989999532699585,7.013599872589111 1.4989999532699585,7.013700008392334 1.4989999532699585,7.013700008392334 C1.4989999532699585,7.013700008392334 1.4989999532699585,7.013700008392334 1.4989999532699585,7.013700008392334z"></path></g></g><g mask="url(#__lottie_element_281_1)" style="display: none;"><g transform="matrix(1,0,0,1,73.94999694824219,48.22979736328125)" opacity="1"><path fill="rgb(255,184,62)" fill-opacity="1" d=" M0.38100001215934753,0.6251000165939331 C0.7831799983978271,0.3599500060081482 1.1967999935150146,0.08330000191926956 1.6449999809265137,0.014100000262260437 C2.0931499004364014,-0.055070001631975174 2.59879994392395,0.12939999997615814 2.8285999298095703,0.6021000146865845 C3.0469300746917725,1.0286500453948975 2.9779999256134033,1.628100037574768 2.7367000579833984,2.043100118637085 C2.495389938354492,2.458120107650757 2.1047000885009766,2.723299980163574 1.7024999856948853,2.838599920272827 C1.1969000101089478,2.9884700775146484 0.6223000288009644,2.9077000617980957 0.2660999894142151,2.4465999603271484 C-0.0786300003528595,1.9969899654388428 -0.13609999418258667,0.9825000166893005 0.38100001215934753,0.6251000165939331 C0.38100001215934753,0.6251000165939331 0.38100001215934753,0.6251000165939331 0.38100001215934753,0.6251000165939331 C0.38100001215934753,0.6251000165939331 0.38100001215934753,0.6251000165939331 0.38100001215934753,0.6251000165939331z"></path></g></g><g mask="url(#__lottie_element_288_1)" style="display: none;"><g transform="matrix(1,0,0,1,78.90550231933594,44.42539978027344)" opacity="1"><path fill="rgb(255,148,61)" fill-opacity="1" d=" M0.38960000872612,0.6251000165939331 C0.7917799949645996,0.3599500060081482 1.205399990081787,0.08330000191926956 1.6535999774932861,0.014100000262260437 C2.101749897003174,-0.055070001631975174 2.6073999404907227,0.12939999997615814 2.8371999263763428,0.6021000146865845 C3.055530071258545,1.0286500453948975 2.986599922180176,1.628100037574768 2.745300054550171,2.043100118637085 C2.5039899349212646,2.458120107650757 2.113300085067749,2.723299980163574 1.7110999822616577,2.838599920272827 C1.2055000066757202,2.9884700775146484 0.6309000253677368,2.9077000617980957 0.27469998598098755,2.4465999603271484 C-0.08151999861001968,1.9854700565338135 -0.13899999856948853,0.9710000157356262 0.38960000872612,0.6251000165939331 C0.38960000872612,0.6251000165939331 0.38960000872612,0.6251000165939331 0.38960000872612,0.6251000165939331 C0.38960000872612,0.6251000165939331 0.38960000872612,0.6251000165939331 0.38960000872612,0.6251000165939331z"></path></g></g><g mask="url(#__lottie_element_295_1)" style="display: none;"><g transform="matrix(1,0,0,1,96.62149810791016,51.94989776611328)" opacity="1"><path fill="rgb(255,184,62)" fill-opacity="1" d=" M0.0020000000949949026,2.265700101852417 C0.03646999970078468,1.7469199895858765 0.08250000327825546,1.2051000595092773 0.28929999470710754,0.7555000185966492 C0.4961400032043457,0.3058899939060211 0.9212999939918518,-0.05139999836683273 1.4039000272750854,0.006200000178068876 C1.840559959411621,0.06384000182151794 2.2311999797821045,0.45579999685287476 2.403599977493286,0.9168999791145325 C2.564470052719116,1.3780299425125122 2.5299999713897705,1.8853000402450562 2.3805999755859375,2.3234000205993652 C2.1967499256134033,2.865230083465576 1.794600009918213,3.349400043487549 1.2660000324249268,3.407099962234497 C0.7259299755096436,3.4762699604034424 -0.04399999976158142,2.946000099182129 0.0020000000949949026,2.2657999992370605 C0.0020000000949949026,2.2657999992370605 0.0020000000949949026,2.265700101852417 0.0020000000949949026,2.265700101852417 C0.0020000000949949026,2.265700101852417 0.0020000000949949026,2.265700101852417 0.0020000000949949026,2.265700101852417z"></path></g></g><g mask="url(#__lottie_element_302_1)" style="display: block;"><g transform="matrix(0.20000000298023224,0,0,0.20000000298023224,123.24752044677734,94.03263854980469)" opacity="1"><path fill="rgb(255,207,130)" fill-opacity="1" d=" M0,48.06890106201172 C6.4234299659729,30.845539093017578 17.144399642944336,15.651100158691406 30.623300552368164,4.664599895477295 C33.02490997314453,2.704780101776123 35.598899841308594,0.8371000289916992 38.506099700927734,0.21459999680519104 C44.860591888427734,-1.1572699546813965 51.39899826049805,4.226399898529053 53.260501861572266,11.166500091552734 C55.12202835083008,18.106569290161133 52.88130187988281,25.86520004272461 48.664100646972656,31.352699279785156 C44.446929931640625,36.8401985168457 38.47169876098633,40.29880142211914 32.33549880981445,42.592899322509766 C22.625659942626953,46.212799072265625 12.134400367736816,47.158199310302734 0,48.06890106201172 C0,48.06890106201172 0,48.06890106201172 0,48.06890106201172 C0,48.06890106201172 0,48.06890106201172 0,48.06890106201172z"></path></g></g><g mask="url(#__lottie_element_309_1)" style="display: block;"><g transform="matrix(0.20000000298023224,0,0,0.20000000298023224,120.5999984741211,100.6236801147461)" opacity="1"><path fill="rgb(255,148,61)" fill-opacity="1" d=" M103.22309875488281,40.695098876953125 C101.02832794189453,49.27220153808594 97.14440155029297,57.23830032348633 91.44490051269531,63.85559844970703 C59.546058654785156,68.13262176513672 26.325700759887695,58.80619812011719 0,38.14739990234375 C44.03327178955078,37.674739837646484 70.66929626464844,25.120399475097656 102.12000274658203,0.00009999999747378752 C102.22341918945312,0.34595000743865967 102.32689666748047,0.6802999973297119 102.4188003540039,1.0261000394821167 C106.06143188476562,13.995499610900879 106.48660278320312,28.013999938964844 103.22319793701172,40.6952018737793 C103.22319793701172,40.6952018737793 103.22309875488281,40.695098876953125 103.22309875488281,40.695098876953125 C103.22309875488281,40.695098876953125 103.22309875488281,40.695098876953125 103.22309875488281,40.695098876953125z"></path></g></g><g mask="url(#__lottie_element_316_1)" style="display: block;"><g transform="matrix(0.20000000298023224,0,0,0.20000000298023224,120.5999984741211,108.25314331054688)" opacity="1"><path fill="rgb(255,106,61)" fill-opacity="1" d=" M103.22309875488281,2.547800064086914 C101.02832794189453,11.124899864196777 97.14440155029297,19.090999603271484 91.44490051269531,25.70829963684082 C59.546058654785156,29.985319137573242 26.325700759887695,20.658899307250977 0,0.00009999999747378752 C31.278329849243164,10.905920028686523 70.8760986328125,13.603599548339844 103.22309875488281,2.5478999614715576 C103.22309875488281,2.5478999614715576 103.22309875488281,2.547800064086914 103.22309875488281,2.547800064086914 C103.22309875488281,2.547800064086914 103.22309875488281,2.547800064086914 103.22309875488281,2.547800064086914z"></path></g></g><g mask="url(#__lottie_element_323_1)" style="display: block;"><g transform="matrix(0.20000000298023224,0,0,0.20000000298023224,134.4522247314453,98.03844451904297)" opacity="1"><path fill="rgb(255,207,130)" fill-opacity="1" d=" M8.452099800109863,0.3142000138759613 C10.428540229797363,1.2364699840545654 12.462499618530273,2.2047998905181885 13.703499794006348,3.772700071334839 C14.944519996643066,5.340559959411621 15.243300437927246,7.680799961090088 13.73799991607666,9.640600204467773 C12.370579719543457,11.427490234375 9.75059986114502,12.522700309753418 7.475399971008301,12.534199714660645 C5.20019006729126,12.557259559631348 3.2811999320983887,11.646599769592285 1.9253000020980835,10.366900444030762 C0.24762000143527985,8.775989532470703 -0.6371999979019165,6.366499900817871 0.5349000096321106,3.9916999340057373 C1.7299599647521973,1.616860032081604 5.866700172424316,-0.8963000178337097 8.452199935913086,0.3142000138759613 C8.452199935913086,0.3142000138759613 8.452099800109863,0.3142000138759613 8.452099800109863,0.3142000138759613 C8.452099800109863,0.3142000138759613 8.452099800109863,0.3142000138759613 8.452099800109863,0.3142000138759613z"></path></g></g><g mask="url(#__lottie_element_330_1)" style="display: block;"><g transform="matrix(0.20000000298023224,0,0,0.20000000298023224,136.7178955078125,105.77872467041016)" opacity="1"><path fill="rgb(255,106,61)" fill-opacity="1" d=" M3.4207000732421875,0.1289999932050705 C4.225069999694824,0.509440004825592 5.0524001121521,0.9014000296592712 5.558000087738037,1.5355000495910645 C6.063600063323975,2.169559955596924 6.178500175476074,3.1149001121520996 5.569499969482422,3.9219000339508057 C5.017940044403076,4.648190021514893 3.9493000507354736,5.086299896240234 3.0299999713897705,5.097799777984619 C2.110729932785034,5.109330177307129 1.3293999433517456,4.7403998374938965 0.7778000235557556,4.22160005569458 C0.09983000159263611,3.57600998878479 -0.2563000023365021,2.596100091934204 0.21480000019073486,1.6276999711990356 C0.6859300136566162,0.6593199968338013 2.363600015640259,-0.3666999936103821 3.420799970626831,0.1289999932050705 C3.420799970626831,0.1289999932050705 3.4207000732421875,0.1289999932050705 3.4207000732421875,0.1289999932050705 C3.4207000732421875,0.1289999932050705 3.4207000732421875,0.1289999932050705 3.4207000732421875,0.1289999932050705z"></path></g></g></g></svg>